<?xml version="1.0" ?>
    <svg viewBox="0 0 24 24" xmlns="http://www.w3.org/2000/svg">
    <defs><style>.cls-1{fill:#F77F00;}</style></defs>
        <g data-name="39. Document" id="_39._Document">
            <polygon class="cls-1" points="16 0.58 16 6 21.42 6 16 0.58"/>
            <path class="cls-1" d="M15,8a1,1,0,0,1-1-1V0H5A3.009,3.009,0,0,0,2,3V21a3.009,3.009,0,0,0,3,3H19a3.009,3.009,0,0,0,3-3V8Zm0,13H7a1,1,0,0,1,0-2h8a1,1,0,0,1,0,2Zm2-4H7a1,1,0,0,1,0-2H17a1,1,0,0,1,0,2Zm0-4H9a1,1,0,0,1,0-2h8a1,1,0,0,1,0,2Z"/>
        </g>
    </svg>