<?xml version="1.0" ?>
    <svg viewBox="0 0 24 24" xmlns="http://www.w3.org/2000/svg">
    <defs><style>.cls-1{fill:#F77F00;}</style></defs>
        <g data-name="11. Folder" id="_11._Folder">
            <path class="cls-1" d="M16.03,5h7.79A2.987,2.987,0,0,0,21,3H15.22a1.009,1.009,0,0,1,.07.15Z"/>
            <path class="cls-1" d="M23,7H14.68L13.43,3.89A2.981,2.981,0,0,0,10.65,2H3A3.009,3.009,0,0,0,0,5V19a3.009,3.009,0,0,0,3,3H21a3.009,3.009,0,0,0,3-3V8A1,1,0,0,0,23,7Z"/>
        </g>
    </svg>